<svg
    id="Layer_1"
     enable-background="new 0 0 66 66"
     viewBox="0 0 66 66"
     xmlns="http://www.w3.org/2000/svg"
>
    <g>
        <linearGradient id="maGrad" x1="0" x2="64" y1="32" y2="32" gradientUnits="userSpaceOnUse">
            <stop offset="0" stop-color="#42067d"/>
            <stop offset="1" stop-color="#ee5d81"/>
        </linearGradient>
        <path fill="url(#maGrad)" d="m60.78 51.09c-1.93 0-3.55 1.37-3.9 3.17h-10.28c-2.05 0-3.72-1.64-3.72-3.65v-2.77h9.83c5.16 0 9.36-4.32 9.36-9.62s-4.2-9.61-9.36-9.61c-.62 0-1.22.06-1.81.19.14-.65.21-1.32.21-2.01 0-3.92-2.34-7.28-5.66-8.7.33-1.82 2.42-3.64 4.36-3.64h5.47c2.7 0 4.84-2.72 5.17-5.31 1.86-.33 3.27-1.92 3.27-3.85 0-2.17-1.78-3.93-3.97-3.93s-3.98 1.76-3.98 3.93c0 1.89 1.36 3.46 3.16 3.84-.32 1.86-1.87 3.82-3.66 3.82h-5.47c-2.6 0-5.24 2.22-5.81 4.66-.66-.16-1.35-.25-2.07-.25-1.59 0-3.13.45-4.49 1.24v-9.66c1.83-.35 3.23-1.94 3.23-3.85 0-2.17-1.78-3.93-3.97-3.93-2.2 0-3.98 1.76-3.98 3.93 0 1.91 1.39 3.5 3.22 3.84v8.96c-1.77-1.84-4.05-3.07-6.53-3.54v-1.29c0-2.84-2.34-5.15-5.22-5.15l-11.13.01c-.35-1.81-1.96-3.17-3.89-3.17-2.19 0-3.98 1.76-3.98 3.92s1.79 3.92 3.98 3.92c1.93 0 3.54-1.36 3.89-3.17h11.15c2.05 0 3.72 1.64 3.72 3.65v1.11c-.25-.02-.5-.04-.75-.04-6.79 0-12.31 5.68-12.31 12.66v.34c-.06 0-.11 0-.17 0-5.56 0-10.08 4.64-10.08 10.35s4.52 10.36 10.08 10.36h10.08v8.68c0 2.01-1.67 3.65-3.72 3.65h-11.92c-.35-1.81-1.97-3.17-3.9-3.17-2.19 0-3.98 1.76-3.98 3.92 0 2.17 1.79 3.93 3.98 3.93 1.93 0 3.54-1.37 3.9-3.18h11.92c2.88 0 5.22-2.31 5.22-5.15v-8.68h6.13v9.23c-1.84.35-3.23 1.94-3.23 3.85 0 2.17 1.79 3.93 3.98 3.93s3.97-1.76 3.97-3.93c0-1.91-1.39-3.5-3.22-3.85v-9.23h7.48v2.77c0 2.84 2.34 5.15 5.22 5.15h10.28c.36 1.8 1.97 3.17 3.9 3.17 2.19 0 3.97-1.76 3.97-3.92s-1.78-3.93-3.97-3.93zm-3.5-45.8c0-1.34 1.11-2.43 2.48-2.43 1.36 0 2.47 1.09 2.47 2.43 0 1.33-1.11 2.42-2.47 2.42 0 0 0 0-.01 0 0 0 0 0-.01 0-1.35-.01-2.46-1.09-2.46-2.42zm-48.12 5.8c-1.37 0-2.48-1.09-2.48-2.42s1.11-2.42 2.48-2.42c1.36 0 2.46 1.08 2.47 2.41v.02.01c-.01 1.32-1.11 2.4-2.47 2.4zm-3.93 52.25c-1.37 0-2.48-1.09-2.48-2.43 0-1.33 1.11-2.42 2.48-2.42s2.48 1.08 2.48 2.41v.01.01c-.01 1.34-1.12 2.42-2.48 2.42zm30.39-2.43c0 1.34-1.11 2.43-2.47 2.43-1.37 0-2.48-1.09-2.48-2.43 0-1.33 1.11-2.42 2.47-2.42h.01c1.36 0 2.47 1.09 2.47 2.42zm-1.4-55.82c0-1.34 1.11-2.43 2.48-2.43 1.36 0 2.47 1.09 2.47 2.43 0 1.33-1.11 2.42-2.47 2.42-1.37 0-2.48-1.08-2.48-2.42zm-28.1 32.39c0-4.88 3.85-8.85 8.58-8.85.29 0 .58.01.88.04.22.02.44-.05.6-.2s.25-.37.23-.59c-.02-.36-.04-.72-.04-1.09 0-6.15 4.85-11.16 10.81-11.16 3.54 0 6.87 1.8 8.9 4.81.01.02.03.03.05.05l.12.12c.03.03.07.05.11.07.05.03.1.04.16.06.03.01.05.03.09.03h.05c.02 0 .03.01.05.01.04 0 .07-.02.11-.02.05-.01.09-.01.13-.03.06-.02.11-.05.16-.08.03-.02.06-.02.08-.04 1.35-1.13 3-1.73 4.76-1.73 4.23 0 7.67 3.55 7.67 7.92 0 1-.17 1.95-.51 2.84-.11.28-.04.59.17.8s.52.27.8.17c.84-.33 1.73-.49 2.65-.49 4.34 0 7.86 3.64 7.86 8.11 0 4.48-3.53 8.12-7.86 8.12h-38.03c-4.74-.01-8.58-3.99-8.58-8.87zm54.66 19.95c-1.37 0-2.47-1.08-2.48-2.41v-.01-.01c.01-1.33 1.12-2.41 2.48-2.41s2.47 1.09 2.47 2.42-1.11 2.42-2.47 2.42z"/>
        <path fill="url(#maGrad)" d="m26.06 38.75 1.72 3.92c.12.28.4.45.69.45.1 0 .2-.02.3-.06.38-.17.55-.61.39-.99l-1.91-4.37-3.62-8.27c-.12-.27-.39-.45-.69-.45h-.3c-.3 0-.57.18-.69.45l-3.62 8.27-1.91 4.37c-.17.38.01.82.39.99s.82-.01.99-.39l1.72-3.92zm-3.28-7.48 2.62 5.98h-5.24z"/>
        <path fill="url(#maGrad)" d="m43.6 43.15c.41 0 .75-.34.75-.75v-12.64c0-.41-.34-.75-.75-.75s-.75.34-.75.75v12.64c0 .41.33.75.75.75z"/>
        <path fill="url(#maGrad)" d="m32.36 43.12c.41 0 .75-.34.75-.75v-6.4h3.52c1.93 0 3.5-1.57 3.5-3.5s-1.57-3.5-3.5-3.5h-4.27c-.41 0-.75.34-.75.75v12.64c0 .43.33.76.75.76zm.75-12.64h3.52c1.1 0 2 .9 2 2s-.9 2-2 2h-3.52z"/>
    </g>
</svg>