<svg
    id="svg"
    version="1.1"
    xmlns="http://www.w3.org/2000/svg" xmlns:xlink="http://www.w3.org/1999/xlink"
    width="400"
    height="400"
    viewBox="0, 0, 400,400"
>
    <g id="svgg">
        <path
            id="path0"
            d="M208.203 62.730 C 186.745 64.588,167.024 71.968,150.559 84.303 C 144.967 88.493,143.528 91.991,145.793 95.890 C 148.507 100.565,152.947 100.456,159.520 95.556 C 195.618 68.644,242.632 70.996,278.271 101.497 C 287.283 109.210,296.122 98.529,287.440 90.417 C 267.946 72.200,234.362 60.466,208.203 62.730 M206.250 92.980 C 185.069 95.904,163.749 108.437,165.951 116.670 C 167.580 122.761,172.997 123.851,178.983 119.293 C 201.881 101.859,233.892 103.234,255.535 122.582 C 260.475 126.998,264.766 127.219,267.821 123.214 C 271.460 118.443,268.134 112.902,257.302 105.690 C 242.196 95.634,222.516 90.734,206.250 92.980 M206.445 123.450 C 200.079 124.788,194.243 127.388,190.010 130.773 C 180.879 138.073,188.778 149.248,198.403 142.646 C 209.707 134.892,223.327 135.252,233.984 143.587 C 238.600 147.197,243.534 146.697,245.984 142.371 C 251.991 131.765,226.020 119.337,206.445 123.450 M210.938 150.421 C 205.462 152.894,202.674 159.692,204.859 165.242 C 205.051 165.730,204.080 166.026,199.408 166.907 C 180.750 170.425,172.327 175.316,152.539 194.123 C 140.155 205.893,129.854 215.039,128.983 215.039 C 128.242 215.039,128.104 214.828,123.444 206.580 C 107.792 178.877,87.239 162.564,64.483 159.782 C 60.387 159.281,60.487 159.047,63.094 163.047 C 68.820 171.831,71.911 179.928,76.753 198.828 C 82.878 222.731,86.693 228.847,99.512 235.308 C 101.357 236.238,102.170 237.109,101.193 237.109 C 100.503 237.109,92.644 242.576,90.448 244.582 C 85.808 248.823,82.421 255.515,79.279 266.648 C 72.265 291.503,69.154 299.447,62.454 309.613 L 59.779 313.672 61.432 313.670 C 68.987 313.659,81.772 309.527,90.510 304.273 C 104.567 295.819,114.451 284.274,125.031 263.950 C 127.529 259.152,128.396 257.813,129.004 257.813 C 129.812 257.813,131.596 259.294,146.875 272.662 C 170.653 293.464,177.880 297.972,193.837 301.957 C 195.615 302.401,197.305 302.846,197.591 302.945 C 197.952 303.070,197.424 304.116,195.873 306.348 C 190.101 314.658,183.674 321.671,176.636 327.341 L 173.002 330.269 175.466 330.836 C 179.757 331.823,195.282 331.641,200.302 330.545 C 215.577 327.210,226.980 319.915,234.153 308.888 C 235.594 306.673,236.676 305.411,237.231 305.298 C 237.701 305.202,240.371 304.682,243.164 304.143 C 272.928 298.389,306.676 274.391,325.619 245.508 C 332.516 234.992,332.596 234.432,328.109 228.103 C 311.690 204.945,288.520 184.921,266.992 175.285 C 255.548 170.163,238.264 165.662,229.883 165.622 C 227.048 165.608,226.587 165.339,226.991 163.932 C 229.533 155.067,219.446 146.577,210.938 150.421 M248.203 195.730 C 238.776 218.004,240.212 252.143,251.619 276.917 C 253.613 281.246,253.480 281.227,248.761 276.488 C 226.268 253.906,225.616 218.098,247.266 194.410 C 249.846 191.587,249.915 191.685,248.203 195.730 M285.048 210.799 C 287.083 211.522,289.906 214.551,290.551 216.705 C 293.541 226.683,281.118 233.583,274.116 225.833 C 267.268 218.252,275.224 207.310,285.048 210.799 "
            stroke="none"
            fill="#8C697C"
            fill-rule="evenodd"
        ></path>
        <!-- Background   -->
        <path
            id="path1"
            d="M0.000 200.000 L 0.000 400.000 200.000 400.000 L 400.000 400.000 400.000 200.000 L 400.000 0.000 200.000 0.000 L 0.000 0.000 0.000 200.000 M229.611 63.443 C 250.742 66.625,271.266 76.041,287.041 89.791 C 291.152 93.373,292.271 97.087,290.296 100.593 C 287.611 105.358,282.470 105.471,277.274 100.877 C 243.184 70.745,194.633 69.092,158.010 96.816 C 153.589 100.163,149.846 100.329,146.829 97.312 C 143.256 93.739,144.089 89.183,149.023 85.313 C 171.149 67.958,202.713 59.392,229.611 63.443 M220.508 92.584 C 236.237 93.873,252.239 100.511,264.113 110.674 C 269.980 115.694,271.005 119.670,267.470 123.696 C 264.187 127.435,260.600 127.071,255.195 122.452 C 232.882 103.382,201.682 101.978,179.587 119.050 C 172.605 124.444,165.625 122.409,165.625 114.980 C 165.625 106.377,189.834 94.043,209.570 92.591 C 215.326 92.167,215.421 92.167,220.508 92.584 M220.323 122.672 C 231.183 124.007,244.148 130.558,246.348 135.823 C 248.460 140.878,245.035 146.105,239.623 146.087 C 237.568 146.080,237.176 145.890,231.927 142.341 C 221.412 135.231,208.634 135.481,198.106 143.003 C 189.580 149.094,181.235 138.764,188.910 131.618 C 196.060 124.960,208.985 121.279,220.323 122.672 M220.356 150.283 C 225.538 152.576,228.797 159.409,226.983 164.180 L 226.622 165.130 231.377 165.604 C 267.310 169.190,302.481 191.727,327.739 227.350 C 332.899 234.628,332.866 234.888,325.367 246.064 C 304.799 276.716,269.160 300.932,238.270 305.244 C 236.543 305.485,236.443 305.579,234.168 309.083 C 223.034 326.234,196.888 335.838,175.053 330.798 C 172.558 330.222,172.543 330.286,175.693 327.930 C 181.811 323.353,190.329 314.183,195.757 306.331 C 198.022 303.055,198.027 303.070,194.336 302.189 C 177.824 298.249,170.888 293.881,144.745 270.963 C 131.815 259.626,129.426 257.679,128.764 257.933 C 128.468 258.047,126.891 260.691,125.258 263.810 C 108.936 294.990,88.037 311.819,63.399 313.620 C 59.185 313.929,59.275 314.163,62.040 310.060 C 68.558 300.388,72.100 291.669,77.792 271.289 C 83.267 251.682,86.382 246.509,96.837 239.657 L 101.540 236.575 98.778 235.077 C 86.095 228.195,82.279 221.812,76.171 197.266 C 71.752 179.507,68.940 172.303,62.618 162.545 L 60.495 159.269 63.353 159.538 C 87.602 161.825,109.232 179.639,126.304 211.383 C 127.302 213.239,128.383 214.859,128.705 214.983 C 129.415 215.255,140.028 205.923,151.513 194.925 C 155.891 190.734,160.901 186.024,162.646 184.458 C 172.626 175.508,184.861 169.568,198.730 166.941 C 201.684 166.381,204.305 165.868,204.553 165.801 C 204.885 165.710,204.864 165.284,204.472 164.187 C 201.259 155.177,211.384 146.315,220.356 150.283 M246.860 195.020 C 225.951 219.733,226.509 253.245,248.203 275.686 C 253.105 280.757,253.192 280.790,251.429 276.915 C 239.912 251.604,238.677 217.795,248.433 194.870 C 249.850 191.539,249.801 191.544,246.860 195.020 M277.019 211.173 C 272.422 213.464,270.585 218.894,272.800 223.649 C 276.081 230.695,286.260 230.765,289.868 223.766 C 293.967 215.814,285.115 207.139,277.019 211.173 "
            stroke="none"
            fill="none"
            fill-rule="evenodd">
        </path>
    </g>
</svg>