<svg xmlns="http://www.w3.org/2000/svg" viewBox="0 0 253.48 212.06">
    <g id="Layer_2" data-name="Layer 2">
        <g id="Layer_1-2" data-name="Layer 1">
            <path class="cls-1" d="M119.56,151h0A58.52,58.52,0,0,1,61,209.56h0A58.53,58.53,0,0,1,2.5,151V90.87C2.5,29.3,46.8,9.07,67.43,3A11.83,11.83,0,0,1,81.65,9.73l1.16,2.73a11,11,0,0,1-6.24,14.63C66.21,30.94,51.79,39.16,47.64,55.78,43.52,68.14,47,79.2,50.3,85.87A11.94,11.94,0,0,0,61,92.5h0A58.52,58.52,0,0,1,119.56,151Z" />
            <path class="cls-1" d="M251,151h0a58.53,58.53,0,0,1-58.53,58.53h0A58.52,58.52,0,0,1,133.92,151V90.87c0-61.57,44.3-81.8,64.93-87.89a11.81,11.81,0,0,1,14.21,6.75l1.17,2.73A11,11,0,0,1,208,27.09c-10.35,3.85-24.78,12.07-28.93,28.69-4.11,12.36-.63,23.42,2.66,30.09a12,12,0,0,0,10.74,6.63h0A58.53,58.53,0,0,1,251,151Z" />
        </g>
    </g>
</svg>
